<svg xmlns="http://www.w3.org/2000/svg" xmlns:xlink="http://www.w3.org/1999/xlink">
  <defs>

    <symbol viewBox="0 0 24 24" id="icon-1">
      <path
        d="M6.84 5.76L8.4 7.68H5.28l-.72 2.88H2.64l.72-2.88H1.44L0 13.44h3.84l-.48 1.92h3.36L4.2 18.24h2.82l2.34-2.88h5.28l2.34 2.88h2.82l-2.52-2.88h3.36l-.48-1.92H24l-1.44-5.76h-1.92l.72 2.88h-1.92l-.72-2.88H15.6l1.56-1.92h-2.04l-1.68 1.92h-2.88L8.88 5.76zm.24 3.84H9v1.92H7.08zm7.925 0h1.92v1.92h-1.92Z" />
    </symbol>

    <symbol viewBox="0 0 16 16" id="search">
      <path fill="white"
        d="M15.53 14.47l-3.795-3.795A5.965 5.965 0 0013 7a6 6 0 10-6 6 5.97 5.97 0 003.675-1.264l3.795 3.795 1.06-1.06v-.001zM7 11.5c-2.48 0-4.5-2.02-4.5-4.5S4.52 2.5 7 2.5s4.5 2.02 4.5 4.5-2.02 4.5-4.5 4.5z"></path>
    </symbol>

    <symbol viewBox="0 0 24 24" id="subdirectory_arrow_right">
      <path d="M19 15l-6 6-1.42-1.42L15.17 16H4V4h2v10h9.17l-3.59-3.58L13 9l6 6z"
        fill="currentColor"></path>
    </symbol>

    <symbol viewBox="0 0 24 24" id="drop-down">
      <path
        d="M7.75745 10.5858L9.17166 9.17154L12.0001 12L14.8285 9.17157L16.2427 10.5858L12.0001 14.8284L7.75745 10.5858Z"
        fill="currentColor" />
      <path
        d="M6.34317 7.75732L4.92896 9.17154L12 16.2426L19.0711 9.17157L17.6569 7.75735L12 13.4142L6.34317 7.75732Z"
        fill="currentColor"
      />
    </symbol>


    <symbol viewBox="0 0 24 24" id="attachment">
      <path
        d="M14 0C16.7614 0 19 2.23858 19 5V17C19 20.866 15.866 24 12 24C8.13401 24 5 20.866 5 17V9H7V17C7 19.7614 9.23858 22 12 22C14.7614 22 17 19.7614 17 17V5C17 3.34315 15.6569 2 14 2C12.3431 2 11 3.34315 11 5V17C11 17.5523 11.4477 18 12 18C12.5523 18 13 17.5523 13 17V6H15V17C15 18.6569 13.6569 20 12 20C10.3431 20 9 18.6569 9 17V5C9 2.23858 11.2386 0 14 0Z"
        fill="currentColor"
      />
    </symbol>


    <symbol viewBox="0 0 24 24" id="toolbar-bottom">
      <path
        fill-rule="evenodd"
        clip-rule="evenodd"
        d="M2 8C2 6.34315 3.34315 5 5 5H19C20.6569 5 22 6.34315 22 8V16C22 17.6569 20.6569 19 19 19H5C3.34315 19 2 17.6569 2 16V8ZM5 7H19C19.5523 7 20 7.44771 20 8V16C20 16.5523 19.5523 17 19 17H5C4.44772 17 4 16.5523 4 16V8C4 7.44772 4.44772 7 5 7Z"
        fill="currentColor"
      />
    </symbol>


    <symbol viewBox="0 0 24 24" id="toolbar-left">

      <path d="M8 9H6V15H8V9Z" fill="currentColor" />
      <path
        fill-rule="evenodd"
        clip-rule="evenodd"
        d="M2 8C2 6.34315 3.34315 5 5 5H19C20.6569 5 22 6.34315 22 8V16C22 17.6569 20.6569 19 19 19H5C3.34315 19 2 17.6569 2 16V8ZM5 7H19C19.5523 7 20 7.44771 20 8V16C20 16.5523 19.5523 17 19 17H5C4.44772 17 4 16.5523 4 16V8C4 7.44772 4.44772 7 5 7Z"
        fill="currentColor"
      />
    </symbol>

    <symbol viewBox="0 0 24 24" id="toolbar-top">

      <path d="M18 11H6V9H18V11Z" fill="currentColor" />
      <path
        fill-rule="evenodd"
        clip-rule="evenodd"
        d="M2 16C2 17.6569 3.34315 19 5 19H19C20.6569 19 22 17.6569 22 16V8C22 6.34315 20.6569 5 19 5H5C3.34315 5 2 6.34315 2 8V16ZM5 17H19C19.5523 17 20 16.5523 20 16V8C20 7.44772 19.5523 7 19 7H5C4.44772 7 4 7.44771 4 8V16C4 16.5523 4.44772 17 5 17Z"
        fill="currentColor"
      />

    </symbol>


    <symbol viewBox="0 0 24 24" id="search">
      <path
        fill-rule="evenodd"
        clip-rule="evenodd"
        d="M18.319 14.4326C20.7628 11.2941 20.542 6.75347 17.6569 3.86829C14.5327 0.744098 9.46734 0.744098 6.34315 3.86829C3.21895 6.99249 3.21895 12.0578 6.34315 15.182C9.22833 18.0672 13.769 18.2879 16.9075 15.8442C16.921 15.8595 16.9351 15.8745 16.9497 15.8891L21.1924 20.1317C21.5829 20.5223 22.2161 20.5223 22.6066 20.1317C22.9971 19.7412 22.9971 19.1081 22.6066 18.7175L18.364 14.4749C18.3493 14.4603 18.3343 14.4462 18.319 14.4326ZM16.2426 5.28251C18.5858 7.62565 18.5858 11.4246 16.2426 13.7678C13.8995 16.1109 10.1005 16.1109 7.75736 13.7678C5.41421 11.4246 5.41421 7.62565 7.75736 5.28251C10.1005 2.93936 13.8995 2.93936 16.2426 5.28251Z"
        fill="currentColor"
      />
    </symbol>


    <symbol viewBox="0 0 24 24" id="settings">

      <path
        fill-rule="evenodd"
        clip-rule="evenodd"
        d="M7 3C8.86384 3 10.4299 4.27477 10.874 6H19V8H10.874C10.4299 9.72523 8.86384 11 7 11C4.79086 11 3 9.20914 3 7C3 4.79086 4.79086 3 7 3ZM7 9C8.10457 9 9 8.10457 9 7C9 5.89543 8.10457 5 7 5C5.89543 5 5 5.89543 5 7C5 8.10457 5.89543 9 7 9Z"
        fill="currentColor"
      />
      <path
        fill-rule="evenodd"
        clip-rule="evenodd"
        d="M17 20C15.1362 20 13.5701 18.7252 13.126 17H5V15H13.126C13.5701 13.2748 15.1362 12 17 12C19.2091 12 21 13.7909 21 16C21 18.2091 19.2091 20 17 20ZM17 18C18.1046 18 19 17.1046 19 16C19 14.8954 18.1046 14 17 14C15.8954 14 15 14.8954 15 16C15 17.1046 15.8954 18 17 18Z"
        fill="currentColor"
      />
    </symbol>


    <symbol viewBox="0 0 24 24" id="drop">
      <path
        d="M6.34315 19.5208C3.21895 16.3966 3.21895 11.3312 6.34315 8.20705L12 2.5502L17.6569 8.20705C20.781 11.3312 20.781 16.3966 17.6569 19.5208C14.5327 22.645 9.46734 22.645 6.34315 19.5208Z"
        stroke="currentColor"
        stroke-width="2"
      />

    </symbol>

    <symbol viewBox="0 0 24 24" id="mark">
      <path
        fill-rule="evenodd"
        clip-rule="evenodd"
        d="M19 20H17.1717L12.7072 15.5354C12.3166 15.1449 11.6835 15.1449 11.2929 15.5354L6.82843 20L5 20V7C5 5.34315 6.34315 4 8 4H16C17.6569 4 19 5.34314 19 7V20ZM17 7C17 6.44772 16.5523 6 16 6H8C7.44772 6 7 6.44772 7 7V17L9.87873 14.1212C11.0503 12.9497 12.9498 12.9497 14.1214 14.1212L17 16.9999V7Z"
        fill="currentColor"
      />


    </symbol>


    <symbol viewBox="0 0 24 24" id="bookmark">
      <path
        fill-rule="evenodd"
        clip-rule="evenodd"
        d="M2 19C2 20.6569 3.34315 22 5 22H19C20.6569 22 22 20.6569 22 19V5C22 3.34315 20.6569 2 19 2H5C3.34315 2 2 3.34315 2 5V19ZM20 19C20 19.5523 19.5523 20 19 20H5C4.44772 20 4 19.5523 4 19V5C4 4.44772 4.44772 4 5 4H10V12.0111L12.395 12.0112L14.0001 9.86419L15.6051 12.0112H18.0001L18 4H19C19.5523 4 20 4.44772 20 5V19ZM16 4H12V9.33585L14.0001 6.66046L16 9.33571V4Z"
        fill="currentColor"
      />
    </symbol>


    <symbol viewBox="0 0 24 24" id="clipboard">

      <!-- <path d="M13 7H7V5H13V7Z" fill="currentColor" /> -->
      <!-- <path d="M13 11H7V9H13V11Z" fill="currentColor" /> -->
      <!-- <path d="M7 15H13V13H7V15Z" fill="currentColor" /> -->
      <path
        fill-rule="evenodd"
        clip-rule="evenodd"
        d="M3 19V1H17V5H21V23H7V19H3ZM15 17V3H5V17H15ZM17 7V19H9V21H19V7H17Z"
        fill="currentColor"
      />


    </symbol>


    <symbol
      id="component"
      viewBox="0 0 24 24"
      fill="none"
      xmlns="http://www.w3.org/2000/svg"
    >
      <path
        fill-rule="evenodd"
        clip-rule="evenodd"
        d="M7.7572 6.3431L11.9998 2.10046L16.2425 6.3431L11.9998 10.5857L7.7572 6.3431ZM10.5856 6.3431L11.9998 4.92889L13.4141 6.3431L11.9998 7.75732L10.5856 6.3431Z"
        fill="currentColor"
      />
      <path
        fill-rule="evenodd"
        clip-rule="evenodd"
        d="M2.10046 11.9999L6.3431 7.75726L10.5857 11.9999L6.3431 16.2425L2.10046 11.9999ZM4.92889 11.9999L6.3431 10.5857L7.75732 11.9999L6.3431 13.4141L4.92889 11.9999Z"
        fill="currentColor"
      />
      <path
        fill-rule="evenodd"
        clip-rule="evenodd"
        d="M13.4142 11.9999L17.6568 16.2425L21.8995 11.9999L17.6568 7.75726L13.4142 11.9999ZM17.6568 10.5857L16.2426 11.9999L17.6568 13.4141L19.071 11.9999L17.6568 10.5857Z"
        fill="currentColor"
      />
      <path
        fill-rule="evenodd"
        clip-rule="evenodd"
        d="M7.7572 17.6569L11.9998 13.4142L16.2425 17.6569L11.9998 21.8995L7.7572 17.6569ZM10.5856 17.6569L11.9998 16.2427L13.4141 17.6569L11.9998 19.0711L10.5856 17.6569Z"
        fill="currentColor"
      />
    </symbol>


  </defs>
</svg>